<svg width="13" height="14" viewBox="0 0 13 14" fill="none" xmlns="http://www.w3.org/2000/svg">
<path d="M4.99992 12.3333C5.17673 12.3333 5.3463 12.4036 5.47133 12.5286C5.59635 12.6536 5.66659 12.8232 5.66659 13C5.66659 13.1768 5.59635 13.3464 5.47133 13.4714C5.3463 13.5964 5.17673 13.6667 4.99992 13.6667C4.82311 13.6667 4.65354 13.5964 4.52852 13.4714C4.40349 13.3464 4.33325 13.1768 4.33325 13C4.33325 12.8232 4.40349 12.6536 4.52852 12.5286C4.65354 12.4036 4.82311 12.3333 4.99992 12.3333ZM9.66659 12.3333C9.8434 12.3333 10.013 12.4036 10.138 12.5286C10.263 12.6536 10.3333 12.8232 10.3333 13C10.3333 13.1768 10.263 13.3464 10.138 13.4714C10.013 13.5964 9.8434 13.6667 9.66659 13.6667C9.48978 13.6667 9.32021 13.5964 9.19518 13.4714C9.07016 13.3464 8.99992 13.1768 8.99992 13C8.99992 12.8232 9.07016 12.6536 9.19518 12.5286C9.32021 12.4036 9.48978 12.3333 9.66659 12.3333ZM0.466588 0.933344C0.563982 0.803461 0.705422 0.713578 0.864372 0.680561C1.02332 0.647543 1.18886 0.67366 1.32992 0.754011L1.39992 0.800677L2.53859 1.65401C2.73236 1.79941 2.88286 1.99485 2.97392 2.21934L3.01392 2.33334H11.5779C11.7587 2.3333 11.9375 2.37 12.1036 2.44122C12.2697 2.51243 12.4197 2.61668 12.5442 2.74762C12.6688 2.87856 12.7655 3.03346 12.8283 3.20292C12.8912 3.37237 12.919 3.55283 12.9099 3.73334L12.9013 3.83201L12.5966 6.26868C12.5052 7.00196 12.1726 7.68407 11.6513 8.20781C11.13 8.73154 10.4494 9.06719 9.71659 9.16201L9.56592 9.17734L4.69059 9.58401L4.86392 10.3333H10.6666C10.8365 10.3335 10.9999 10.3986 11.1235 10.5152C11.2471 10.6319 11.3214 10.7913 11.3314 10.9609C11.3413 11.1306 11.2861 11.2976 11.1771 11.4279C11.068 11.5582 10.9133 11.6419 10.7446 11.662L10.6666 11.6667H4.86392C4.58099 11.6667 4.30538 11.5768 4.07695 11.4098C3.84852 11.2429 3.67912 11.0076 3.59325 10.738L3.56459 10.6333L1.73792 2.72001L0.599921 1.86668C0.458473 1.76059 0.36496 1.60266 0.339955 1.42763C0.31495 1.25259 0.360501 1.07479 0.466588 0.933344Z" fill="white"/>
</svg>
